<svg viewBox="0 0 1200 400" xmlns="http://www.w3.org/2000/svg">
  <!-- Background sky and ground -->
  <rect x="0" y="0" width="1200" height="220" fill="#87CEEB"/>
  <rect x="0" y="220" width="1200" height="180" fill="#4A6B3A"/>

  <!-- Road -->
  <g id="road-layer">
    <rect x="0" y="260" width="1200" height="60" fill="#505050"/>
    <g fill="#FFFF00">
      <rect x="50" y="289" width="100" height="2"/>
      <rect x="200" y="289" width="100" height="2"/>
      <rect x="350" y="289" width="100" height="2"/>
      <rect x="500" y="289" width="100" height="2"/>
      <rect x="650" y="289" width="100" height="2"/>
      <rect x="800" y="289" width="100" height="2"/>
      <rect x="950" y="289" width="100" height="2"/>
      <rect x="1100" y="289" width="100" height="2"/>
    </g>
    <rect x="0" y="260" width="1200" height="3" fill="#FFFFFF"/>
    <rect x="0" y="317" width="1200" height="3" fill="#FFFFFF"/>
  </g>

  <!-- Guard rails / boundaries layer -->
  <g id="guard-rails-layer" transform="translate(0, 40)">
    <text x="50" y="75" font-family="Arial, sans-serif" font-size="18" font-weight="bold" fill="#2E5A8A">BOUNDARIES ENFORCED</text>
    <!-- Posts -->
    <g fill="#C0C0C0" stroke="#A0A0A0" stroke-width="1">
      <rect x="48" y="100" width="6" height="35" rx="2"/>
      <rect x="148" y="100" width="6" height="35" rx="2"/>
      <rect x="248" y="100" width="6" height="35" rx="2"/>
      <rect x="348" y="100" width="6" height="35" rx="2"/>
      <rect x="448" y="100" width="6" height="35" rx="2"/>
      <rect x="548" y="100" width="6" height="35" rx="2"/>
      <rect x="648" y="100" width="6" height="35" rx="2"/>
      <rect x="748" y="100" width="6" height="35" rx="2"/>
      <rect x="848" y="100" width="6" height="35" rx="2"/>
      <rect x="948" y="100" width="6" height="35" rx="2"/>
      <rect x="1048" y="100" width="6" height="35" rx="2"/>
    </g>
    <!-- Main rail -->
    <rect x="0" y="105" width="1200" height="14" fill="#E0E0E0" stroke="#C0C0C0" stroke-width="1"/>
    <!-- Corrugation lines -->
    <g stroke="#D0D0D0" stroke-width="0.5" opacity="0.7">
      <line x1="0" y1="107" x2="1200" y2="107"/>
      <line x1="0" y1="110" x2="1200" y2="110"/>
      <line x1="0" y1="113" x2="1200" y2="113"/>
      <line x1="0" y1="116" x2="1200" y2="116"/>
      <line x1="0" y1="119" x2="1200" y2="119"/>
    </g>
    <!-- Label near rail -->
    <text x="1050" y="120" font-family="Arial, sans-serif" font-size="14" fill="#333">GUARD RAILS</text>
  </g>

  <!-- Bus layer -->
  <g id="bus-layer" transform="translate(0, 125) scale(1)">
    <g>
      <animateTransform attributeName="transform" type="translate" values="-400,0;1400,0" dur="20s" repeatCount="indefinite"/>
      <!-- Bus body -->
      <rect x="70" y="60" width="280" height="80" rx="8" ry="8" fill="#FFD700" stroke="#E6C200" stroke-width="2"/>
      <rect x="340" y="70" width="20" height="60" rx="10" ry="10" fill="#FFD700" stroke="#E6C200" stroke-width="2"/>
      <rect x="65" y="55" width="290" height="10" rx="5" ry="5" fill="#FFA500"/>
      <rect x="350" y="125" width="15" height="8" rx="4" ry="4" fill="#C0C0C0"/>
      <rect x="342" y="75" width="16" height="20" rx="2" ry="2" fill="#2F4F4F" opacity="0.8"/>
      <rect x="305" y="70" width="25" height="20" rx="2" ry="2" fill="#2F4F4F" opacity="0.8"/>
      <rect x="275" y="70" width="25" height="20" rx="2" ry="2" fill="#2F4F4F" opacity="0.8"/>
      <rect x="245" y="70" width="25" height="20" rx="2" ry="2" fill="#2F4F4F" opacity="0.8"/>
      <rect x="215" y="70" width="25" height="20" rx="2" ry="2" fill="#2F4F4F" opacity="0.8"/>
      <rect x="185" y="70" width="25" height="20" rx="2" ry="2" fill="#2F4F4F" opacity="0.8"/>
      <rect x="155" y="70" width="25" height="20" rx="2" ry="2" fill="#2F4F4F" opacity="0.8"/>
      <rect x="125" y="70" width="25" height="20" rx="2" ry="2" fill="#2F4F4F" opacity="0.8"/>
      <rect x="95" y="70" width="25" height="20" rx="2" ry="2" fill="#2F4F4F" opacity="0.8"/>
      <rect x="75" y="75" width="15" height="15" rx="2" ry="2" fill="#2F4F4F" opacity="0.8"/>
      <rect x="315" y="95" width="20" height="35" rx="2" ry="2" fill="#E6C200" stroke="#D4AF37" stroke-width="1"/>
      <rect x="317" y="97" width="16" height="15" rx="1" ry="1" fill="#2F4F4F" opacity="0.8"/>
      <circle cx="319" cy="112" r="1.5" fill="#000"/>
      <text x="200" y="110" text-anchor="middle" font-family="Arial, sans-serif" font-size="14" font-weight="bold" fill="#000">EVENT BUS</text>
      <circle cx="353" cy="80" r="3" fill="#FFFF00"/>
      <circle cx="353" cy="120" r="3" fill="#FF4500"/>
      <rect x="69" y="77" width="6" height="8" rx="3" ry="3" fill="#FF0000"/>
      <rect x="69" y="110" width="6" height="8" rx="3" ry="3" fill="#FF0000"/>
      <g>
        <circle cx="310" cy="155" r="20" fill="#2F2F2F" stroke="#000" stroke-width="2"/>
        <circle cx="310" cy="155" r="15" fill="#4F4F4F"/>
        <circle cx="310" cy="155" r="8" fill="#696969"/>
        <circle cx="310" cy="155" r="3" fill="#2F2F2F"/>
        <circle cx="110" cy="155" r="20" fill="#2F2F2F" stroke="#000" stroke-width="2"/>
        <circle cx="110" cy="155" r="15" fill="#4F4F4F"/>
        <circle cx="110" cy="155" r="8" fill="#696969"/>
        <circle cx="110" cy="155" r="3" fill="#2F2F2F"/>
      </g>
    </g>
  </g>
</svg>

