<svg viewBox="0 0 400 200" xmlns="http://www.w3.org/2000/svg">
  <!-- Animation keyframes -->
  <defs>
    <animateTransform id="wheelSpin" attributeName="transform" type="rotate" values="0;360" dur="1s" repeatCount="indefinite"/>
  </defs>
  
  <!-- Bus body -->
  <rect x="70" y="60" width="280" height="80" rx="8" ry="8" fill="#FFD700" stroke="#E6C200" stroke-width="2"/>
  
  <!-- Bus front -->
  <rect x="340" y="70" width="20" height="60" rx="10" ry="10" fill="#FFD700" stroke="#E6C200" stroke-width="2"/>
  
  <!-- Bus roof -->
  <rect x="65" y="55" width="290" height="10" rx="5" ry="5" fill="#FFA500"/>
  
  <!-- Front bumper -->
  <rect x="350" y="125" width="15" height="8" rx="4" ry="4" fill="#C0C0C0"/>
  
  <!-- Windows (tinted dark) -->
  <!-- Front windshield -->
  <rect x="342" y="75" width="16" height="20" rx="2" ry="2" fill="#2F4F4F" opacity="0.8"/>
  
  <!-- Side windows -->
  <rect x="305" y="70" width="25" height="20" rx="2" ry="2" fill="#2F4F4F" opacity="0.8"/>
  <rect x="275" y="70" width="25" height="20" rx="2" ry="2" fill="#2F4F4F" opacity="0.8"/>
  <rect x="245" y="70" width="25" height="20" rx="2" ry="2" fill="#2F4F4F" opacity="0.8"/>
  <rect x="215" y="70" width="25" height="20" rx="2" ry="2" fill="#2F4F4F" opacity="0.8"/>
  <rect x="185" y="70" width="25" height="20" rx="2" ry="2" fill="#2F4F4F" opacity="0.8"/>
  <rect x="155" y="70" width="25" height="20" rx="2" ry="2" fill="#2F4F4F" opacity="0.8"/>
  <rect x="125" y="70" width="25" height="20" rx="2" ry="2" fill="#2F4F4F" opacity="0.8"/>
  <rect x="95" y="70" width="25" height="20" rx="2" ry="2" fill="#2F4F4F" opacity="0.8"/>
  
  <!-- Emergency exit window -->
  <rect x="75" y="75" width="15" height="15" rx="2" ry="2" fill="#2F4F4F" opacity="0.8"/>
  
  <!-- Door -->
  <rect x="315" y="95" width="20" height="35" rx="2" ry="2" fill="#E6C200" stroke="#D4AF37" stroke-width="1"/>
  <rect x="317" y="97" width="16" height="15" rx="1" ry="1" fill="#2F4F4F" opacity="0.8"/>
  <circle cx="319" cy="112" r="1.5" fill="#000"/>
  
  <!-- School Bus text -->
  <text x="200" y="110" text-anchor="middle" font-family="Arial, sans-serif" font-size="14" font-weight="bold" fill="#000">SCHOOL BUS</text>
  
  <!-- Front and rear lights -->
  <circle cx="353" cy="80" r="3" fill="#FFFF00"/>
  <circle cx="353" cy="120" r="3" fill="#FF4500"/>
  <rect x="69" y="77" width="6" height="8" rx="3" ry="3" fill="#FF0000"/>
  <rect x="69" y="110" width="6" height="8" rx="3" ry="3" fill="#FF0000"/>
  
  <!-- Wheels with spinning animation -->
  <g>
    <!-- Front wheel (now on the right) -->
    <circle cx="310" cy="155" r="20" fill="#2F2F2F" stroke="#000" stroke-width="2"/>
    <circle cx="310" cy="155" r="15" fill="#4F4F4F"/>
    <circle cx="310" cy="155" r="8" fill="#696969"/>
    <circle cx="310" cy="155" r="3" fill="#2F2F2F"/>
    <!-- Animated wheel spokes -->
    <g>
      <animateTransform attributeName="transform" type="rotate" values="0 310 155;360 310 155" dur="1s" repeatCount="indefinite"/>
      <line x1="310" y1="140" x2="310" y2="170" stroke="#A9A9A9" stroke-width="2"/>
      <line x1="325" y1="155" x2="295" y2="155" stroke="#A9A9A9" stroke-width="2"/>
      <line x1="321" y1="144" x2="299" y2="166" stroke="#A9A9A9" stroke-width="2"/>
      <line x1="321" y1="166" x2="299" y2="144" stroke="#A9A9A9" stroke-width="2"/>
    </g>
    
    <!-- Rear wheel (now on the left) -->
    <circle cx="110" cy="155" r="20" fill="#2F2F2F" stroke="#000" stroke-width="2"/>
    <circle cx="110" cy="155" r="15" fill="#4F4F4F"/>
    <circle cx="110" cy="155" r="8" fill="#696969"/>
    <circle cx="110" cy="155" r="3" fill="#2F2F2F"/>
    <!-- Animated wheel spokes -->
    <g>
      <animateTransform attributeName="transform" type="rotate" values="0 110 155;360 110 155" dur="1s" repeatCount="indefinite"/>
      <line x1="110" y1="140" x2="110" y2="170" stroke="#A9A9A9" stroke-width="2"/>
      <line x1="125" y1="155" x2="95" y2="155" stroke="#A9A9A9" stroke-width="2"/>
      <line x1="121" y1="144" x2="99" y2="166" stroke="#A9A9A9" stroke-width="2"/>
      <line x1="121" y1="166" x2="99" y2="144" stroke="#A9A9A9" stroke-width="2"/>
    </g>
  </g>
  
  <!-- Stop sign arm (folded) -->
  <rect x="67" y="90" width="3" height="15" fill="#000"/>
  <polygon points="55,95 67,90 67,100" fill="#FF0000" stroke="#000" stroke-width="1"/>
  <text x="61" y="98" text-anchor="middle" font-family="Arial, sans-serif" font-size="6" font-weight="bold" fill="#FFF">STOP</text>
  
  <!-- License plate -->
  <rect x="62" y="125" width="18" height="8" rx="1" ry="1" fill="#FFF" stroke="#000" stroke-width="1"/>
  <text x="71" y="131" text-anchor="middle" font-family="Arial, sans-serif" font-size="4" fill="#000">BUS 123</text>
  
  <!-- Side mirrors -->
  <ellipse cx="362" cy="82" rx="3" ry="2" fill="#C0C0C0" stroke="#000" stroke-width="1"/>
  <ellipse cx="362" cy="98" rx="3" ry="2" fill="#C0C0C0" stroke="#000" stroke-width="1"/>
</svg>