<?xml version="1.0" encoding="UTF-8"?>
<svg width="1200" height="720" viewBox="0 0 1200 720"
     xmlns="http://www.w3.org/2000/svg" role="img" aria-label="slide-01-manifest">
  <defs><linearGradient id="violetArc" x1="0" y1="0" x2="1" y2="1">
        <stop offset="0" stop-color="#8b5cf6"/><stop offset="1" stop-color="#a78bfa"/>
      </linearGradient><filter id="softShadow" x="-20%" y="-20%" width="140%" height="140%">
        <feDropShadow dx="0" dy="4" stdDeviation="8" flood-color="#000" flood-opacity="0.35"/>
      </filter><filter id="glow">
        <feGaussianBlur stdDeviation="2.5" result="b"/>
        <feMerge>
          <feMergeNode in="b"/>
          <feMergeNode in="SourceGraphic"/>
        </feMerge>
      </filter><symbol id="pkg/box"><rect x="0" y="0" width="420" height="140" rx="8" fill="#2d3748" stroke="#4a5568" stroke-width="2"/></symbol><symbol id="pkg/shadow"><ellipse cx="210" cy="135" rx="200" ry="15" fill="#000" opacity="0.2"/></symbol><symbol id="pkg/label"><rect x="10" y="10" width="200" height="30" rx="4" fill="#4299e1" stroke="#3182ce"/><text x="110" y="28" text-anchor="middle" fill="white" font-size="14" font-weight="bold">Plugin Package</text></symbol><symbol id="pkg/glyphs"><g opacity="0.5"><circle cx="350" cy="30" r="8" fill="#a0aec0"/><rect x="340" y="50" width="20" height="20" rx="2" fill="#a0aec0"/><polygon points="345,80 355,80 350,90" fill="#a0aec0"/></g></symbol><symbol id="pkg/npm-badge"><rect x="0" y="0" width="80" height="28" rx="14" fill="#cb3837"/><text x="40" y="18" text-anchor="middle" fill="white" font-size="12" font-weight="bold">npm</text></symbol><symbol id="manifest/card"><rect x="0" y="0" width="420" height="140" rx="8" fill="#1a202c" stroke="#00d9ff" stroke-width="2"/></symbol><symbol id="manifest/braces"><text x="20" y="40" fill="#00d9ff" font-size="24" font-weight="bold">{</text><text x="380" y="120" fill="#00d9ff" font-size="24" font-weight="bold">}</text></symbol><symbol id="manifest/rows"><g fill="#e2e8f0" font-size="12"><text x="40" y="60">"name": "my-plugin",</text><text x="40" y="80">"version": "1.0.0",</text><text x="40" y="100">"handlers": ["onDragStart"]</text></g></symbol><symbol id="manifest/stamp"><rect x="320" y="10" width="80" height="20" rx="10" fill="#38a169" opacity="0.8"/><text x="360" y="22" text-anchor="middle" fill="white" font-size="10">GENERATED</text></symbol><symbol id="manifest/tabs"><g fill="#4a5568"><rect x="0" y="0" width="60" height="20" rx="4"/><rect x="65" y="0" width="60" height="20" rx="4"/><rect x="130" y="0" width="60" height="20" rx="4"/></g><g fill="#a0aec0" font-size="10"><text x="30" y="12" text-anchor="middle">routes</text><text x="95" y="12" text-anchor="middle">topics</text><text x="160" y="12" text-anchor="middle">handlers</text></g></symbol><symbol id="handlers/connectors"><g stroke="#4c1d95" stroke-width="2" fill="none" opacity="0.3"><path d="M30 80 Q150 80 270 80"/><path d="M30 100 Q150 100 270 100"/><circle cx="30" cy="80" r="4" fill="#4c1d95"/><circle cx="30" cy="100" r="4" fill="#4c1d95"/></g></symbol><symbol id="handlers/ports"><g><rect x="280" y="65" width="120" height="24" rx="12" fill="#553c9a" stroke="#7c3aed" stroke-width="1"/><text x="340" y="79" text-anchor="middle" fill="white" font-size="11" font-weight="500">onDragStart</text><rect x="280" y="95" width="130" height="24" rx="12" fill="#553c9a" stroke="#7c3aed" stroke-width="1"/><text x="345" y="109" text-anchor="middle" fill="white" font-size="10" font-weight="500">publishCreateRequested</text></g></symbol><symbol id="handlers/gradient"><path d="M 30 90 C 180 50, 270 50, 390 90" stroke="url(#violetArc)" stroke-width="4" fill="none" filter="url(#glow)"/><path d="M 30 90 C 180 50, 270 50, 390 90" stroke="#d6bcfa" stroke-width="1.2" fill="none" stroke-dasharray="8 8"><animate attributeName="stroke-dashoffset" from="0" to="-1000" dur="6s" repeatCount="indefinite"/></path></symbol><symbol id="handlers/traces"><g stroke="#a78bfa" stroke-width="1.5" fill="none" opacity="0.6"><path d="M390 85 L420 75"/><path d="M390 90 L420 85"/><path d="M390 95 L420 95"/><path d="M390 100 L420 105"/><polygon points="415,73 420,75 415,77" fill="#a78bfa"/><polygon points="415,83 420,85 415,87" fill="#a78bfa"/><polygon points="415,93 420,95 415,97" fill="#a78bfa"/><polygon points="415,103 420,105 415,107" fill="#a78bfa"/></g></symbol><symbol id="build/conveyor"><rect x="0" y="60" width="300" height="20" fill="#4a5568"/><g fill="#718096"><circle cx="30" cy="70" r="8"/><circle cx="80" cy="70" r="8"/><circle cx="130" cy="70" r="8"/><circle cx="180" cy="70" r="8"/><circle cx="230" cy="70" r="8"/><circle cx="280" cy="70" r="8"/></g></symbol><symbol id="build/stage"><rect x="300" y="40" width="80" height="60" rx="8" fill="#2d3748" stroke="#4a5568"/><text x="340" y="75" text-anchor="middle" fill="#e2e8f0" font-size="12">STAGE</text></symbol><symbol id="build/tags"><g fill="#f6ad55"><rect x="320" y="20" width="40" height="15" rx="7"/><text x="340" y="30" text-anchor="middle" fill="white" font-size="10">v1.0</text></g></symbol><symbol id="build/uplink"><path d="M340 40 L340 10 L350 20 M340 10 L330 20" stroke="#f6ad55" stroke-width="3" fill="none"/></symbol><symbol id="host/console"><rect x="0" y="0" width="420" height="140" rx="8" fill="#2d3748" stroke="#4a5568" stroke-width="2"/></symbol><symbol id="host/rails"><g stroke="#718096" stroke-width="2"><line x1="50" y1="40" x2="370" y2="40"/><line x1="50" y1="100" x2="370" y2="100"/></g></symbol><symbol id="host/ports"><g fill="#4a5568"><rect x="20" y="30" width="60" height="20" rx="4"/><rect x="20" y="90" width="60" height="20" rx="4"/><rect x="340" y="30" width="60" height="20" rx="4"/><rect x="340" y="90" width="60" height="20" rx="4"/></g><g fill="#a0aec0" font-size="10"><text x="50" y="42" text-anchor="middle">IN</text><text x="50" y="102" text-anchor="middle">OUT</text><text x="370" y="42" text-anchor="middle">CTRL</text><text x="370" y="102" text-anchor="middle">DATA</text></g></symbol><symbol id="host/modules"><g><rect x="120" y="25" width="80" height="30" rx="4" fill="#553c9a"/><text x="160" y="42" text-anchor="middle" fill="white" font-size="11">Conductor</text><rect x="220" y="85" width="80" height="30" rx="4" fill="#553c9a"/><text x="260" y="102" text-anchor="middle" fill="white" font-size="11">EventRouter</text></g></symbol></defs>
  <rect x="0" y="0" width="100%" height="100%" fill="#0f1116"/>
  <g class="connector">
    <defs>
      <marker id="arrowHead" viewBox="0 0 10 10" refX="9" refY="5" markerWidth="7" markerHeight="7" orient="auto-start-reverse">
        <path d="M0 0 L10 5 L0 10Z" fill="#f59e0b"/>
      </marker>
    </defs>
    <path d="M 233 225 C 233 225, 233 575, 233 575" fill="none" style="stroke:#f59e0b;stroke-width:2" marker-end="url(#arrowHead)"/>
    
  </g><g class="connector">
    <defs>
      <marker id="arrowHead" viewBox="0 0 10 10" refX="9" refY="5" markerWidth="7" markerHeight="7" orient="auto-start-reverse">
        <path d="M0 0 L10 5 L0 10Z" fill="#8b5cf6"/>
      </marker>
    </defs>
    <path d="M 600 225 L 600 225 L 967 225" fill="none" style="stroke:#8b5cf6;stroke-width:2" stroke-dasharray="6 6" marker-end="url(#arrowHead)"/>
    
  </g>
  <g id="plugin-package" transform="translate(23 155)"></g><use id="pp.shadow" transform="translate(23 155)" style="filter:url(#softShadow)" href="#pkg/shadow" width="420" height="140"></use><use id="pp.box" transform="translate(23 155)" href="#pkg/box" width="420" height="140"></use><use id="pp.label" transform="translate(23 155)" href="#pkg/label" width="420" height="140"></use><use id="pp.glyphs" transform="translate(23 155)" style="opacity:0.5" href="#pkg/glyphs" width="420" height="140"></use><use id="pp.npm" transform="translate(343 167)" href="#pkg/npm-badge" width="80" height="28"></use><text id="pp.title" x="41" y="177" style="fill:#e6edf3;font-weight:700;font-size:16">Plugin Package</text><g id="plugin-manifest" transform="translate(390 155)"></g><use id="pm.card" transform="translate(390 155)" href="#manifest/card" width="420" height="140"></use><use id="pm.braces" transform="translate(390 155)" href="#manifest/braces" width="420" height="140"></use><use id="pm.rows" transform="translate(390 155)" href="#manifest/rows" width="420" height="140"></use><use id="pm.stamp" transform="translate(390 155)" href="#manifest/stamp" width="420" height="140"></use><use id="pm.tabs" transform="translate(390 155)" href="#manifest/tabs" width="420" height="140"></use><text id="pm.title" x="408" y="177" style="fill:#e6edf3;font-weight:700;font-size:16">Plugin Manifest</text><g id="handlers-export" transform="translate(757 155)"></g><rect id="hx.card" x="757" y="155" width="420" height="140" rx="8" style="fill:#151922;stroke:#2b3645;stroke-width:1.5;filter:url(#softShadow)"></rect><text id="hx.title" x="775" y="177" style="fill:#e6edf3;font-weight:700;font-size:16">Handlers Export</text><use id="hx.connect" transform="translate(757 155)" href="#handlers/connectors" width="420" height="140"></use><use id="hx.gradient" transform="translate(757 155)" href="#handlers/gradient" width="420" height="140"></use><use id="hx.traces" transform="translate(757 155)" href="#handlers/traces" width="420" height="140"></use><use id="hx.ports" transform="translate(757 155)" href="#handlers/ports" width="420" height="140"></use><g id="build-publish" transform="translate(23 505)"></g><use id="bp.conv" transform="translate(23 505)" href="#build/conveyor" width="420" height="140"></use><use id="bp.stage" transform="translate(23 505)" href="#build/stage" width="420" height="140"></use><use id="bp.tags" transform="translate(23 505)" href="#build/tags" width="420" height="140"></use><use id="bp.up" transform="translate(23 505)" href="#build/uplink" width="420" height="140"></use><text id="bp.title" x="41" y="527" style="fill:#e6edf3;font-weight:700;font-size:16">Build &amp; Publish</text><g id="host-sdk" transform="translate(390 505)"></g><use id="hs.console" transform="translate(390 505)" href="#host/console" width="420" height="140"></use><use id="hs.rails" transform="translate(390 505)" href="#host/rails" width="420" height="140"></use><use id="hs.ports" transform="translate(390 505)" href="#host/ports" width="420" height="140"></use><use id="hs.modules" transform="translate(390 505)" href="#host/modules" width="420" height="140"></use><text id="hs.title" x="408" y="527" style="fill:#e6edf3;font-weight:700;font-size:16">Host SDK (Context)</text>
</svg>