<?xml version="1.0" encoding="UTF-8"?>
<svg width="5400" height="600" viewBox="0 0 5400 600" xmlns="http://www.w3.org/2000/svg">
  <defs>
    <filter id="sceneShadow" x="-20%" y="-20%" width="140%" height="140%"><feDropShadow dx="0" dy="4" stdDeviation="8" flood-color="#000" flood-opacity="0.25"/></filter>
<filter id="busGlow"><feGaussianBlur stdDeviation="2" result="b"/><feMerge><feMergeNode in="b"/><feMergeNode in="SourceGraphic"/></feMerge></filter>
<filter id="trafficLightGlow"><feGaussianBlur stdDeviation="3" result="b"/><feMerge><feMergeNode in="b"/><feMergeNode in="SourceGraphic"/></feMerge></filter>
<filter id="subscriberGlow"><feGaussianBlur stdDeviation="2" result="b"/><feMerge><feMergeNode in="b"/><feMergeNode in="SourceGraphic"/></feMerge></filter>
<filter id="conductorGlow"><feGaussianBlur stdDeviation="3" result="b"/><feMerge><feMergeNode in="b"/><feMergeNode in="SourceGraphic"/></feMerge></filter>
<filter id="signGlow"><feGaussianBlur stdDeviation="2" result="b"/><feMerge><feMergeNode in="b"/><feMergeNode in="SourceGraphic"/></feMerge></filter>
<filter id="schoolGlow"><feGaussianBlur stdDeviation="2" result="b"/><feMerge><feMergeNode in="b"/><feMergeNode in="SourceGraphic"/></feMerge></filter>
<filter id="celebrationGlow"><feGaussianBlur stdDeviation="4" result="b"/><feMerge><feMergeNode in="b"/><feMergeNode in="SourceGraphic"/></feMerge></filter>
<linearGradient id="roadGradient" x1="0" y1="0" x2="1" y2="0"><stop offset="0" stop-color="#404040"/><stop offset="0.5" stop-color="#505050"/><stop offset="1" stop-color="#404040"/></linearGradient>
<linearGradient id="busGradient" x1="0" y1="0" x2="1" y2="0"><stop offset="0" stop-color="#FFD700"/><stop offset="0.5" stop-color="#FFA500"/><stop offset="1" stop-color="#FFD700"/></linearGradient>
<linearGradient id="manifestGradient" x1="0" y1="0" x2="1" y2="1"><stop offset="0" stop-color="#00D9FF"/><stop offset="1" stop-color="#0099CC"/></linearGradient>
<linearGradient id="liveSubscriberGradient" x1="0" y1="0" x2="1" y2="1"><stop offset="0" stop-color="#32CD32"/><stop offset="1" stop-color="#228B22"/></linearGradient>
<linearGradient id="lateSubscriberGradient" x1="0" y1="0" x2="1" y2="1"><stop offset="0" stop-color="#FF6347"/><stop offset="1" stop-color="#DC143C"/></linearGradient>
<linearGradient id="cacheGradient" x1="0" y1="0" x2="1" y2="1"><stop offset="0" stop-color="#4682B4"/><stop offset="1" stop-color="#2F4F4F"/></linearGradient>
<linearGradient id="hubGradient" x1="0" y1="0" x2="1" y2="1"><stop offset="0" stop-color="#4682B4"/><stop offset="1" stop-color="#2F4F4F"/></linearGradient>
<linearGradient id="conductorGradient" x1="0" y1="0" x2="1" y2="1"><stop offset="0" stop-color="#6B4EFF"/><stop offset="1" stop-color="#4A3ACD"/></linearGradient>
<linearGradient id="warningGradient" x1="0" y1="0" x2="1" y2="1"><stop offset="0" stop-color="#FFD700"/><stop offset="1" stop-color="#E6C200"/></linearGradient>
<linearGradient id="safetyGradient" x1="0" y1="0" x2="1" y2="1"><stop offset="0" stop-color="#228B22"/><stop offset="1" stop-color="#006400"/></linearGradient>
<linearGradient id="controlGradient" x1="0" y1="0" x2="1" y2="1"><stop offset="0" stop-color="#4169E1"/><stop offset="1" stop-color="#191970"/></linearGradient>
<linearGradient id="schoolGradient" x1="0" y1="0" x2="1" y2="1"><stop offset="0" stop-color="#CD853F"/><stop offset="1" stop-color="#8B4513"/></linearGradient>
<linearGradient id="roofGradient" x1="0" y1="0" x2="1" y2="1"><stop offset="0" stop-color="#8B0000"/><stop offset="1" stop-color="#654321"/></linearGradient>
<linearGradient id="courtyardGradient" x1="0" y1="0" x2="1" y2="0"><stop offset="0" stop-color="#C0C0C0"/><stop offset="1" stop-color="#A0A0A0"/></linearGradient>
    
      <clipPath id="scene-1-clip">
        <rect x="100" y="100" width="800" height="400" rx="8" ry="8"/>
      </clipPath>

      <clipPath id="scene-2-clip">
        <rect x="1000" y="100" width="800" height="400" rx="8" ry="8"/>
      </clipPath>

      <clipPath id="scene-3-clip">
        <rect x="1900" y="100" width="800" height="400" rx="8" ry="8"/>
      </clipPath>

      <clipPath id="scene-4-clip">
        <rect x="2800" y="100" width="800" height="400" rx="8" ry="8"/>
      </clipPath>

      <clipPath id="scene-5-clip">
        <rect x="3700" y="100" width="800" height="400" rx="8" ry="8"/>
      </clipPath>

      <clipPath id="scene-6-clip">
        <rect x="4600" y="100" width="800" height="400" rx="8" ry="8"/>
      </clipPath>
  </defs>

  <style>
    .scene-boundary {
      overflow: hidden;
    }
    .scene-content {
      clip-path: inherit;
    }
    .scene-title {
      font-family: Arial, sans-serif;
      font-weight: bold;
      text-shadow: 2px 2px 4px rgba(255,255,255,0.8);
    }
  </style>

  <!-- Background -->
  <rect width="100%" height="100%" fill="#87CEEB"/>

  <!-- Title -->
  <text x="2700" y="40" text-anchor="middle"
        font-family="Arial, sans-serif"
        font-size="32"
        font-weight="bold"
        fill="#1E3A56">
    EventRouter Journey: Seamless Bus Travel Through All Scenes
  </text>

  <!-- Subtitle -->
  <text x="2700" y="70" text-anchor="middle"
        font-family="Arial, sans-serif"
        font-size="18"
        fill="#3C556E">
    Seamless Bus Journey Through All EventRouter Scenes
  </text>

  <!-- Connection paths -->
  <path d="M 900,300 Q 950,300 1000,300" stroke="#FFD700" stroke-width="4" fill="none" opacity="0.5" stroke-dasharray="10,5"/>
<path d="M 1800,300 Q 1850,300 1900,300" stroke="#FFD700" stroke-width="4" fill="none" opacity="0.5" stroke-dasharray="10,5"/>
<path d="M 2700,300 Q 2750,300 2800,300" stroke="#FFD700" stroke-width="4" fill="none" opacity="0.5" stroke-dasharray="10,5"/>
<path d="M 3600,300 Q 3650,300 3700,300" stroke="#FFD700" stroke-width="4" fill="none" opacity="0.5" stroke-dasharray="10,5"/>
<path d="M 4500,300 Q 4550,300 4600,300" stroke="#FFD700" stroke-width="4" fill="none" opacity="0.5" stroke-dasharray="10,5"/>

  <!-- Scene boundaries and content -->
  
      <g id="scene-1" class="scene-boundary" transform="translate(100, 100)">
        <!-- Scene background -->
        <rect x="0" y="0" width="800" height="400"
              fill="#87CEEB"
              stroke="#1976D2"
              stroke-width="2"
              rx="8"
              ry="8"/>

        <!-- Scene title -->
        <text x="400" y="25" text-anchor="middle"
              class="scene-title"
              font-size="16"
              fill="#1976D2">
          Scene 1: 1 DEPOT
        </text>

        <!-- Scene content with enforced clipping -->
        <g class="scene-content" clip-path="url(#scene-1-clip)">
          <g transform="translate(0, 40)">
            <!-- Scene 1: The bus leaving the depot with animations -->
            <!-- Background sky -->
            <rect x="0" y="0" width="800" height="250" fill="#87CEEB"/>
            
            <!-- Clouds -->
            <g fill="#FFFFFF" opacity="0.8">
              <!-- Cloud 1 -->
              <circle cx="150" cy="60" r="20"/>
              <circle cx="170" cy="60" r="15"/>
              <circle cx="130" cy="65" r="12"/>
              <circle cx="165" cy="50" r="10"/>
              
              <!-- Cloud 2 -->
              <circle cx="600" cy="80" r="25"/>
              <circle cx="625" cy="80" r="18"/>
              <circle cx="580" cy="85" r="15"/>
              <circle cx="620" cy="65" r="12"/>
              
              <!-- Cloud 3 -->
              <circle cx="400" cy="50" r="18"/>
              <circle cx="420" cy="50" r="12"/>
              <circle cx="385" cy="55" r="10"/>
            </g>
            
            <!-- Ground/grass verges -->
            <rect x="0" y="250" width="800" height="150" fill="#4A6B3A"/>
            
            <!-- Road -->
            <rect x="0" y="280" width="800" height="60" fill="#404040"/>
            
            <!-- Road edges -->
            <rect x="0" y="278" width="800" height="2" fill="#606060"/>
            <rect x="0" y="340" width="800" height="2" fill="#606060"/>
            
            <!-- Dashed center line -->
            <g fill="#FFFF00">
              <rect x="50" y="308" width="40" height="4"/>
              <rect x="120" y="308" width="40" height="4"/>
              <rect x="190" y="308" width="40" height="4"/>
              <rect x="260" y="308" width="40" height="4"/>
              <rect x="330" y="308" width="40" height="4"/>
              <rect x="400" y="308" width="40" height="4"/>
              <rect x="470" y="308" width="40" height="4"/>
              <rect x="540" y="308" width="40" height="4"/>
              <rect x="610" y="308" width="40" height="4"/>
              <rect x="680" y="308" width="40" height="4"/>
              <rect x="750" y="308" width="40" height="4"/>
            </g>
            
            <!-- Depot building -->
            <g id="depot">
              <!-- Main building structure -->
              <rect x="50" y="150" width="200" height="130" fill="#8B7355" stroke="#6B5535" stroke-width="2"/>
              
              <!-- Roof -->
              <polygon points="40,150 150,110 260,110 260,150" fill="#654321" stroke="#543210" stroke-width="2"/>
              
              <!-- Front overhang -->
              <polygon points="45,150 45,140 255,140 255,150" fill="#765432" stroke="#654321" stroke-width="1"/>
              
              <!-- Garage door -->
              <rect x="80" y="200" width="60" height="80" fill="#666" stroke="#444" stroke-width="2" rx="3"/>
              <rect x="160" y="200" width="60" height="80" fill="#666" stroke="#444" stroke-width="2" rx="3"/>
              
              <!-- Garage door panels -->
              <g stroke="#555" stroke-width="1" fill="none">
                <line x1="80" y1="215" x2="140" y2="215"/>
                <line x1="80" y1="230" x2="140" y2="230"/>
                <line x1="80" y1="245" x2="140" y2="245"/>
                <line x1="80" y1="260" x2="140" y2="260"/>
                
                <line x1="160" y1="215" x2="220" y2="215"/>
                <line x1="160" y1="230" x2="220" y2="230"/>
                <line x1="160" y1="245" x2="220" y2="245"/>
                <line x1="160" y1="260" x2="220" y2="260"/>
              </g>
              
              <!-- Depot sign -->
              <rect x="100" y="160" width="100" height="20" fill="#FFFFFF" stroke="#333" stroke-width="1" rx="3"/>
              <text x="150" y="173" text-anchor="middle" font-family="Arial, sans-serif" font-size="12" font-weight="bold" fill="#333">SCHOOL BUS DEPOT</text>
            </g>
            
            <!-- School bus with movement animation -->
            <g id="school-bus" transform="translate(300, 250)">
              <!-- Bus movement animation from left to right -->
              <animateTransform attributeName="transform" type="translate" values="300,250; 900,250" dur="8s" repeatCount="indefinite"/>
              
              <!-- Bus body -->
              <rect x="0" y="0" width="120" height="40" rx="4" ry="4" fill="#FFD700" stroke="#E6C200" stroke-width="2"/>
              
              <!-- Bus front -->
              <rect x="115" y="3" width="12" height="34" rx="6" ry="6" fill="#FFD700" stroke="#E6C200" stroke-width="2"/>
              
              <!-- Bus roof -->
              <rect x="-2" y="-3" width="124" height="6" rx="3" ry="3" fill="#FFA500"/>
              
              <!-- Front bumper -->
              <rect x="125" y="35" width="8" height="4" rx="2" ry="2" fill="#C0C0C0"/>
              
              <!-- Windows (tinted dark) -->
              <rect x="110" y="6" width="8" height="12" rx="1" ry="1" fill="#2F4F4F" opacity="0.8"/>
              <rect x="100" y="6" width="8" height="12" rx="1" ry="1" fill="#2F4F4F" opacity="0.8"/>
              <rect x="90" y="6" width="8" height="12" rx="1" ry="1" fill="#2F4F4F" opacity="0.8"/>
              <rect x="80" y="6" width="8" height="12" rx="1" ry="1" fill="#2F4F4F" opacity="0.8"/>
              <rect x="70" y="6" width="8" height="12" rx="1" ry="1" fill="#2F4F4F" opacity="0.8"/>
              <rect x="60" y="6" width="8" height="12" rx="1" ry="1" fill="#2F4F4F" opacity="0.8"/>
              <rect x="50" y="6" width="8" height="12" rx="1" ry="1" fill="#2F4F4F" opacity="0.8"/>
              <rect x="40" y="6" width="8" height="12" rx="1" ry="1" fill="#2F4F4F" opacity="0.8"/>
              <rect x="30" y="6" width="8" height="12" rx="1" ry="1" fill="#2F4F4F" opacity="0.8"/>
              <rect x="20" y="6" width="8" height="12" rx="1" ry="1" fill="#2F4F4F" opacity="0.8"/>
              <rect x="10" y="6" width="8" height="12" rx="1" ry="1" fill="#2F4F4F" opacity="0.8"/>
              
              <!-- Emergency exit window -->
              <rect x="5" y="8" width="6" height="8" rx="1" ry="1" fill="#2F4F4F" opacity="0.8"/>
              
              <!-- Door -->
              <rect x="95" y="22" width="12" height="18" rx="1" ry="1" fill="#E6C200" stroke="#D4AF37" stroke-width="1"/>
              <rect x="97" y="24" width="8" height="8" rx="1" ry="1" fill="#2F4F4F" opacity="0.8"/>
              <circle cx="99" cy="35" r="1" fill="#000"/>
              
              <!-- School Bus text -->
              <text x="60" y="28" text-anchor="middle" font-family="Arial, sans-serif" font-size="8" font-weight="bold" fill="#000">SCHOOL BUS</text>
              
              <!-- Orange stripe -->
              <rect x="0" y="20" width="120" height="4" fill="#FFA500"/>
              
              <!-- Front headlight (glowing) -->
              <circle cx="123" cy="12" r="3" fill="#FFFF00">
                <animate attributeName="opacity" values="0.8;1;0.8" dur="2s" repeatCount="indefinite"/>
              </circle>
              
              <!-- Rear lights -->
              <rect x="2" y="8" width="3" height="4" rx="1.5" ry="1.5" fill="#FF0000"/>
              <rect x="2" y="28" width="3" height="4" rx="1.5" ry="1.5" fill="#FF0000"/>
              
              <!-- Front wheel with spinning spokes -->
              <g id="front-wheel">
                <circle cx="25" cy="42" r="8" fill="#333" stroke="#222" stroke-width="2"/>
                <circle cx="25" cy="42" r="4" fill="#666"/>
                <circle cx="25" cy="42" r="2" fill="#999"/>
                <g transform-origin="25 42">
                  <line x1="25" y1="36" x2="25" y2="48" stroke="#AAA" stroke-width="1"/>
                  <line x1="19" y1="42" x2="31" y2="42" stroke="#AAA" stroke-width="1"/>
                  <animateTransform attributeName="transform" type="rotate" values="0;360" dur="1s" repeatCount="indefinite"/>
                </g>
              </g>
              
              <!-- Rear wheel with spinning spokes -->
              <g id="rear-wheel">
                <circle cx="95" cy="42" r="8" fill="#333" stroke="#222" stroke-width="2"/>
                <circle cx="95" cy="42" r="4" fill="#666"/>
                <circle cx="95" cy="42" r="2" fill="#999"/>
                <g transform-origin="95 42">
                  <line x1="95" y1="36" x2="95" y2="48" stroke="#AAA" stroke-width="1"/>
                  <line x1="89" y1="42" x2="101" y2="42" stroke="#AAA" stroke-width="1"/>
                  <animateTransform attributeName="transform" type="rotate" values="0;360" dur="1s" repeatCount="indefinite"/>
                </g>
              </g>
            </g>
            
            <!-- Sky Text -->
            <g id="sky-text" transform="translate(400, 40)">
              <!-- Bold headline -->
              <text x="0" y="0" text-anchor="middle" font-family="Arial, sans-serif" font-size="40" font-weight="bold" fill="#1E3A56" stroke="#FFFFFF" stroke-width="2" stroke-opacity="0.8" style="filter: drop-shadow(0px 2px 3px rgba(255,255,255,0.6))">Every journey starts with a <tspan fill="#FFD700">publish</tspan>.</text>
              <!-- Supporting description -->
              <text x="0" y="35" text-anchor="middle" font-family="Arial, sans-serif" font-size="24" fill="#3C556E" style="filter: drop-shadow(0px 1px 2px rgba(255,255,255,0.5))">The depot launches the event onto the route.</text>
            </g>
            
            <!-- Caption -->
            <g id="caption" transform="translate(400, 370)">
              <rect x="-150" y="-10" width="300" height="25" fill="#FFFFFF" fill-opacity="0.9" stroke="#333" stroke-width="1" rx="5"/>
              <text x="0" y="8" text-anchor="middle" font-family="Arial, sans-serif" font-size="14" font-weight="bold" fill="#333">Bus leaves depot → publish(topic, payload)</text>
            </g>
          </g>
        </g>
      </g>
    

      <g id="scene-2" class="scene-boundary" transform="translate(1000, 100)">
        <!-- Scene background -->
        <rect x="0" y="0" width="800" height="400"
              fill="#87CEEB"
              stroke="#1976D2"
              stroke-width="2"
              rx="8"
              ry="8"/>

        <!-- Scene title -->
        <text x="400" y="25" text-anchor="middle"
              class="scene-title"
              font-size="16"
              fill="#1976D2">
          Scene 2: 2 MANIFEST
        </text>

        <!-- Scene content with enforced clipping -->
        <g class="scene-content" clip-path="url(#scene-2-clip)">
          <g transform="translate(0, 40)">
            
          </g>
        </g>
      </g>
    

      <g id="scene-3" class="scene-boundary" transform="translate(1900, 100)">
        <!-- Scene background -->
        <rect x="0" y="0" width="800" height="400"
              fill="#87CEEB"
              stroke="#1976D2"
              stroke-width="2"
              rx="8"
              ry="8"/>

        <!-- Scene title -->
        <text x="400" y="25" text-anchor="middle"
              class="scene-title"
              font-size="16"
              fill="#1976D2">
          Scene 3: 3 SUBSCRIBERS
        </text>

        <!-- Scene content with enforced clipping -->
        <g class="scene-content" clip-path="url(#scene-3-clip)">
          <g transform="translate(0, 40)">
            
          </g>
        </g>
      </g>
    

      <g id="scene-4" class="scene-boundary" transform="translate(2800, 100)">
        <!-- Scene background -->
        <rect x="0" y="0" width="800" height="400"
              fill="#87CEEB"
              stroke="#1976D2"
              stroke-width="2"
              rx="8"
              ry="8"/>

        <!-- Scene title -->
        <text x="400" y="25" text-anchor="middle"
              class="scene-title"
              font-size="16"
              fill="#1976D2">
          Scene 4: 4 CONDUCTOR
        </text>

        <!-- Scene content with enforced clipping -->
        <g class="scene-content" clip-path="url(#scene-4-clip)">
          <g transform="translate(0, 40)">
            
          </g>
        </g>
      </g>
    

      <g id="scene-5" class="scene-boundary" transform="translate(3700, 100)">
        <!-- Scene background -->
        <rect x="0" y="0" width="800" height="400"
              fill="#87CEEB"
              stroke="#1976D2"
              stroke-width="2"
              rx="8"
              ry="8"/>

        <!-- Scene title -->
        <text x="400" y="25" text-anchor="middle"
              class="scene-title"
              font-size="16"
              fill="#1976D2">
          Scene 5: 5 RULES
        </text>

        <!-- Scene content with enforced clipping -->
        <g class="scene-content" clip-path="url(#scene-5-clip)">
          <g transform="translate(0, 40)">
            
          </g>
        </g>
      </g>
    

      <g id="scene-6" class="scene-boundary" transform="translate(4600, 100)">
        <!-- Scene background -->
        <rect x="0" y="0" width="800" height="400"
              fill="#87CEEB"
              stroke="#1976D2"
              stroke-width="2"
              rx="8"
              ry="8"/>

        <!-- Scene title -->
        <text x="400" y="25" text-anchor="middle"
              class="scene-title"
              font-size="16"
              fill="#1976D2">
          Scene 6: 6 SCHOOL
        </text>

        <!-- Scene content with enforced clipping -->
        <g class="scene-content" clip-path="url(#scene-6-clip)">
          <g transform="translate(0, 40)">
            
          </g>
        </g>
      </g>
    

  <!-- Unified traveling bus -->
  
    <g id="unified-school-bus" transform="translate(100, 300)">
      <animateTransform
        attributeName="transform"
        type="translate"
        values="100,300; 900,300; 1000,300; 1800,300; 1900,300; 2700,300; 2800,300; 3600,300; 3700,300; 4500,300; 4600,300; 5400,300"
        dur="30s"
        repeatCount="indefinite"
      />

      <!-- Bus body -->
      <rect x="0" y="0" width="120" height="40" rx="4" ry="4" fill="#FFD700" stroke="#E6C200" stroke-width="2"/>

      <!-- Bus front -->
      <rect x="115" y="3" width="12" height="34" rx="6" ry="6" fill="#FFD700" stroke="#E6C200" stroke-width="2"/>

      <!-- Bus roof -->
      <rect x="-2" y="-3" width="124" height="6" rx="3" ry="3" fill="#FFA500"/>

      <!-- School Bus text -->
      <text x="60" y="28" text-anchor="middle" font-family="Arial, sans-serif" font-size="8" font-weight="bold" fill="#000">SCHOOL BUS</text>

      <!-- Orange stripe -->
      <rect x="0" y="20" width="120" height="4" fill="#FFA500"/>

      <!-- Front headlight (glowing) -->
      <circle cx="123" cy="12" r="3" fill="#FFFF00">
        <animate attributeName="opacity" values="0.8;1;0.8" dur="2s" repeatCount="indefinite"/>
      </circle>

      <!-- Wheels with spinning animation -->
      <g id="front-wheel">
        <circle cx="25" cy="42" r="8" fill="#333" stroke="#222" stroke-width="2"/>
        <circle cx="25" cy="42" r="4" fill="#666"/>
        <g transform-origin="25 42">
          <line x1="25" y1="36" x2="25" y2="48" stroke="#AAA" stroke-width="1"/>
          <line x1="19" y1="42" x2="31" y2="42" stroke="#AAA" stroke-width="1"/>
          <animateTransform attributeName="transform" type="rotate" values="0;360" dur="1s" repeatCount="indefinite"/>
        </g>
      </g>

      <g id="rear-wheel">
        <circle cx="95" cy="42" r="8" fill="#333" stroke="#222" stroke-width="2"/>
        <circle cx="95" cy="42" r="4" fill="#666"/>
        <g transform-origin="95 42">
          <line x1="95" y1="36" x2="95" y2="48" stroke="#AAA" stroke-width="1"/>
          <line x1="89" y1="42" x2="101" y2="42" stroke="#AAA" stroke-width="1"/>
          <animateTransform attributeName="transform" type="rotate" values="0;360" dur="1s" repeatCount="indefinite"/>
        </g>
      </g>
    </g>
  

  <!-- Progress indicator -->
  <g id="progress-indicator" transform="translate(50, 550)">
    <rect x="0" y="0" width="5300" height="20"
          fill="#E0E0E0"
          stroke="#999"
          stroke-width="1"
          rx="10"/>
    <rect x="0" y="0" width="0" height="20"
          fill="#4CAF50"
          rx="10">
      <animate attributeName="width"
               values="0;5300"
               dur="30s"
               repeatCount="indefinite"/>
    </rect>
    <text x="2650" y="35" text-anchor="middle"
          font-family="Arial, sans-serif"
          font-size="12"
          fill="#666">
      Journey Progress
    </text>
  </g>
</svg>