<?xml version="1.0" encoding="UTF-8"?>
<svg viewBox="-24 -24 488 268" width="488" height="268"
     xmlns="http://www.w3.org/2000/svg" role="img" aria-label="Graph">
  <defs>
    <marker id="arrow" viewBox="0 0 10 10" refX="9" refY="5" markerWidth="8" markerHeight="8" orient="auto-start-reverse">
      <path d="M 0 0 L 10 5 L 0 10 z" fill="#64748b"/>
    </marker>
    <style>
      .bg { fill: #ffffff; }
      .node-rect { fill: #f7f8fa; stroke: #334155; stroke-width: 1; }
      .node-label { font: 12px/1.3 ui-sans-serif, system-ui, -apple-system, Segoe UI, Roboto, Helvetica, Arial; fill: #0f172a; }
      .edge-line { fill: none; stroke: #64748b; stroke-width: 1.5; }
      .edge-label { font: 11px/1 ui-sans-serif, system-ui; fill: #64748b; }
    </style>
  </defs>
  <rect class="bg" x="-24" y="-24" width="488" height="268"/>
  <g class="edges">
      <g class="edge" data-id="i1→h1">
        <path d="M 40 20 L 160 20" class="edge-line"/>
        
      </g>
      <g class="edge" data-id="i1→h2">
        <path d="M 40 20 L 160 80" class="edge-line"/>
        
      </g>
      <g class="edge" data-id="i1→h3">
        <path d="M 40 20 L 160 140" class="edge-line"/>
        
      </g>
      <g class="edge" data-id="i1→h4">
        <path d="M 40 20 L 160 200" class="edge-line"/>
        
      </g>
      <g class="edge" data-id="i2→h1">
        <path d="M 40 80 L 160 20" class="edge-line"/>
        
      </g>
      <g class="edge" data-id="i2→h2">
        <path d="M 40 80 L 160 80" class="edge-line"/>
        
      </g>
      <g class="edge" data-id="i2→h3">
        <path d="M 40 80 L 160 140" class="edge-line"/>
        
      </g>
      <g class="edge" data-id="i2→h4">
        <path d="M 40 80 L 160 200" class="edge-line"/>
        
      </g>
      <g class="edge" data-id="i3→h1">
        <path d="M 40 140 L 160 20" class="edge-line"/>
        
      </g>
      <g class="edge" data-id="i3→h2">
        <path d="M 40 140 L 160 80" class="edge-line"/>
        
      </g>
      <g class="edge" data-id="i3→h3">
        <path d="M 40 140 L 160 140" class="edge-line"/>
        
      </g>
      <g class="edge" data-id="i3→h4">
        <path d="M 40 140 L 160 200" class="edge-line"/>
        
      </g>
      <g class="edge" data-id="h1→h5">
        <path d="M 160 20 L 280 20" class="edge-line"/>
        
      </g>
      <g class="edge" data-id="h1→h6">
        <path d="M 160 20 L 280 80" class="edge-line"/>
        
      </g>
      <g class="edge" data-id="h2→h5">
        <path d="M 160 80 L 280 20" class="edge-line"/>
        
      </g>
      <g class="edge" data-id="h2→h6">
        <path d="M 160 80 L 280 80" class="edge-line"/>
        
      </g>
      <g class="edge" data-id="h3→h5">
        <path d="M 160 140 L 280 20" class="edge-line"/>
        
      </g>
      <g class="edge" data-id="h3→h6">
        <path d="M 160 140 L 280 80" class="edge-line"/>
        
      </g>
      <g class="edge" data-id="h4→h5">
        <path d="M 160 200 L 280 20" class="edge-line"/>
        
      </g>
      <g class="edge" data-id="h4→h6">
        <path d="M 160 200 L 280 80" class="edge-line"/>
        
      </g>
      <g class="edge" data-id="h5→o1">
        <path d="M 280 20 L 400 20" class="edge-line"/>
        
      </g>
      <g class="edge" data-id="h5→o2">
        <path d="M 280 20 L 400 80" class="edge-line"/>
        
      </g>
      <g class="edge" data-id="h6→o1">
        <path d="M 280 80 L 400 20" class="edge-line"/>
        
      </g>
      <g class="edge" data-id="h6→o2">
        <path d="M 280 80 L 400 80" class="edge-line"/>
        
      </g></g>
  <g class="nodes">
      <g class="node" data-id="i1">
        <rect x="0" y="0" width="80" height="40" rx="8" ry="8" class="node-rect"/>
        <text x="40" y="20" dominant-baseline="middle" text-anchor="middle" class="node-label">
          <tspan>Input 1</tspan>
        </text>
      </g>
      <g class="node" data-id="i2">
        <rect x="0" y="60" width="80" height="40" rx="8" ry="8" class="node-rect"/>
        <text x="40" y="80" dominant-baseline="middle" text-anchor="middle" class="node-label">
          <tspan>Input 2</tspan>
        </text>
      </g>
      <g class="node" data-id="i3">
        <rect x="0" y="120" width="80" height="40" rx="8" ry="8" class="node-rect"/>
        <text x="40" y="140" dominant-baseline="middle" text-anchor="middle" class="node-label">
          <tspan>Input 3</tspan>
        </text>
      </g>
      <g class="node" data-id="h1">
        <rect x="120" y="0" width="80" height="40" rx="8" ry="8" class="node-rect"/>
        <text x="160" y="20" dominant-baseline="middle" text-anchor="middle" class="node-label">
          <tspan>Hidden 1</tspan>
        </text>
      </g>
      <g class="node" data-id="h2">
        <rect x="120" y="60" width="80" height="40" rx="8" ry="8" class="node-rect"/>
        <text x="160" y="80" dominant-baseline="middle" text-anchor="middle" class="node-label">
          <tspan>Hidden 2</tspan>
        </text>
      </g>
      <g class="node" data-id="h3">
        <rect x="120" y="120" width="80" height="40" rx="8" ry="8" class="node-rect"/>
        <text x="160" y="140" dominant-baseline="middle" text-anchor="middle" class="node-label">
          <tspan>Hidden 3</tspan>
        </text>
      </g>
      <g class="node" data-id="h4">
        <rect x="120" y="180" width="80" height="40" rx="8" ry="8" class="node-rect"/>
        <text x="160" y="200" dominant-baseline="middle" text-anchor="middle" class="node-label">
          <tspan>Hidden 4</tspan>
        </text>
      </g>
      <g class="node" data-id="h5">
        <rect x="240" y="0" width="80" height="40" rx="8" ry="8" class="node-rect"/>
        <text x="280" y="20" dominant-baseline="middle" text-anchor="middle" class="node-label">
          <tspan>Hidden 5</tspan>
        </text>
      </g>
      <g class="node" data-id="h6">
        <rect x="240" y="60" width="80" height="40" rx="8" ry="8" class="node-rect"/>
        <text x="280" y="80" dominant-baseline="middle" text-anchor="middle" class="node-label">
          <tspan>Hidden 6</tspan>
        </text>
      </g>
      <g class="node" data-id="o1">
        <rect x="360" y="0" width="80" height="40" rx="8" ry="8" class="node-rect"/>
        <text x="400" y="20" dominant-baseline="middle" text-anchor="middle" class="node-label">
          <tspan>Output 1</tspan>
        </text>
      </g>
      <g class="node" data-id="o2">
        <rect x="360" y="60" width="80" height="40" rx="8" ry="8" class="node-rect"/>
        <text x="400" y="80" dominant-baseline="middle" text-anchor="middle" class="node-label">
          <tspan>Output 2</tspan>
        </text>
      </g></g>
</svg>