<?xml version="1.0" encoding="UTF-8"?>
<svg width="1200" height="680" viewBox="0 0 1200 680"
     xmlns="http://www.w3.org/2000/svg" role="img" aria-label="slide-01-contextual-boundaries">
  <defs><linearGradient id="rail" x1="0" y1="0" x2="1" y2="0"><stop offset="0" stop-color="#7c3aed"/><stop offset="1" stop-color="#a78bfa"/></linearGradient><linearGradient id="buildFlow" x1="0" y1="0" x2="1" y2="0"><stop offset="0" stop-color="#f59e0b"/><stop offset="1" stop-color="#fbbf24"/></linearGradient><filter id="laneShadow" x="-20%" y="-20%" width="140%" height="140%"><feDropShadow dx="0" dy="4" stdDeviation="8" flood-color="#000" flood-opacity="0.35"/></filter><filter id="glow"><feGaussianBlur stdDeviation="3" result="b"/><feMerge><feMergeNode in="b"/><feMergeNode in="SourceGraphic"/></feMerge></filter><clipPath id="clip-lane.plugin">
      <rect x="48" y="72" width="480" height="480" 
            rx="8" ry="8"/>
    </clipPath>
<clipPath id="clip-lane.host">
      <rect x="672" y="72" width="480" height="480" 
            rx="8" ry="8"/>
    </clipPath>
</defs>
  
    <style>
      .active-glow rect { filter: url(#glow); stroke: #8b5cf6; }
      .connector { stroke-linecap: round; stroke-linejoin: round; }
      .boundary-title { font-family: -apple-system, BlinkMacSystemFont, 'Segoe UI', sans-serif; font-weight: 600; }
      .flow-token { animation-fill-mode: forwards; }
      .boundary-contained { overflow: hidden; }
    </style>
  
  <rect x="0" y="0" width="100%" height="100%" fill="#0f1116"/>
  <g class="connector" id="c.pkg_to_build">
    <defs>
      <marker id="arrowHead" viewBox="0 0 10 10" refX="9" refY="5" markerWidth="7" markerHeight="7" orient="auto-start-reverse">
        <path d="M0 0 L10 5 L0 10Z" fill="url(#buildFlow)"/>
      </marker>
    </defs>
    <path d="M 272 176 L 222 176 L 222 316 L 172 316" fill="none" style="stroke:url(#buildFlow);stroke-width:2"/>
    
  </g><g class="connector" id="c.manifest_to_handlers">
    <defs>
      <marker id="arrowHead" viewBox="0 0 10 10" refX="9" refY="5" markerWidth="7" markerHeight="7" orient="auto-start-reverse">
        <path d="M0 0 L10 5 L0 10Z" fill="url(#rail)"/>
      </marker>
    </defs>
    <path d="M 512 176 L 604 176 L 604 176 L 696 176" fill="none" style="stroke:url(#rail);stroke-width:2"/>
    <text x="604" y="170" font-size="11" fill="#94a3b8" text-anchor="middle">register()</text>
  </g><g class="connector" id="c.manifest_to_sdk">
    <defs>
      <marker id="arrowHead" viewBox="0 0 10 10" refX="9" refY="5" markerWidth="7" markerHeight="7" orient="auto-start-reverse">
        <path d="M0 0 L10 5 L0 10Z" fill="#8b5cf6"/>
      </marker>
    </defs>
    <path d="M 512 176 L 724 176 L 724 176 L 936 176" fill="none" style="stroke:#8b5cf6;stroke-width:2;dashed:true"/>
    
  </g>
  <g id="lane.plugin" class="boundary boundary-contained" clip-path="url(#clip-lane.plugin)">
      <rect x="48" y="72" width="480" height="480" rx="8" style="fill:#141a24;stroke:#253146;stroke-width:1.5;label-color:#e6edf3" filter="url(#laneShadow)"/>
      <text x="60" y="64" class="boundary-title" fill="#e6edf3" font-size="14">Plugin Context</text>
    </g><rect id="pkg.tile" x="72" y="96" width="200" height="160" rx="8" style="fill:#2d3748;stroke:#4a5568;stroke-width:2"></rect><text id="pkg.title" x="82" y="120" style="fill:#e6edf3;font-size:16;font-weight:700">Plugin Package</text><rect id="pkg.npm" x="192" y="136" width="60" height="20" rx="8" style="fill:#cb3837;stroke:none"></rect><text id="pkg.npm.text" x="222" y="148" style="fill:#ffffff;font-size:10;font-weight:700;text-anchor:middle">npm</text><rect id="manifest.tile" x="312" y="96" width="200" height="160" rx="8" style="fill:#1a202c;stroke:#00d9ff;stroke-width:2"></rect><text id="manifest.title" x="322" y="120" style="fill:#e6edf3;font-size:16;font-weight:700">Plugin Manifest</text><text id="manifest.brace1" x="322" y="160" style="fill:#00d9ff;font-size:24;font-weight:700">{</text><text id="manifest.content" x="332" y="180" style="fill:#e2e8f0;font-size:12">&quot;handlers&quot;: [...]</text><text id="manifest.brace2" x="492" y="240" style="fill:#00d9ff;font-size:24;font-weight:700">}</text><rect id="build.tile" x="72" y="316" width="200" height="160" rx="8" style="fill:#2d3748;stroke:#4a5568;stroke-width:2"></rect><text id="build.title" x="82" y="340" style="fill:#e6edf3;font-size:16;font-weight:700">Build &amp; Publish</text><rect id="build.conveyor" x="82" y="412" width="180" height="12" rx="0" style="fill:#4a5568;stroke:none"></rect><rect id="build.stage" x="212" y="392" width="40" height="40" rx="8" style="fill:#f59e0b;stroke:#d97706;stroke-width:1"></rect><text id="build.stage.text" x="232" y="414" style="fill:#ffffff;font-size:10;font-weight:700;text-anchor:middle">v1.0</text><g id="lane.host" class="boundary boundary-contained" clip-path="url(#clip-lane.host)">
      <rect x="672" y="72" width="480" height="480" rx="8" style="fill:#141a24;stroke:#253146;stroke-width:1.5;label-color:#e6edf3" filter="url(#laneShadow)"/>
      <text x="684" y="64" class="boundary-title" fill="#e6edf3" font-size="14">Host Context</text>
    </g><rect id="handlers.tile" x="696" y="96" width="200" height="160" rx="8" style="fill:#151922;stroke:#2b3645;stroke-width:1.5"></rect><text id="handlers.title" x="706" y="120" style="fill:#e6edf3;font-size:16;font-weight:700">Handlers Export</text><rect id="handlers.port1" x="706" y="152" width="100" height="20" rx="8" style="fill:#553c9a;stroke:#7c3aed;stroke-width:1"></rect><text id="handlers.port1.text" x="756" y="164" style="fill:#ffffff;font-size:10;font-weight:500;text-anchor:middle">onDragStart</text><rect id="handlers.port2" x="706" y="182" width="100" height="20" rx="8" style="fill:#553c9a;stroke:#7c3aed;stroke-width:1"></rect><text id="handlers.port2.text" x="756" y="194" style="fill:#ffffff;font-size:10;font-weight:500;text-anchor:middle">publishCreate</text><rect id="sdk.tile" x="936" y="96" width="200" height="160" rx="8" style="fill:#2d3748;stroke:#4a5568;stroke-width:2"></rect><text id="sdk.title" x="946" y="120" style="fill:#e6edf3;font-size:16;font-weight:700">Host SDK</text><rect id="sdk.rail1" x="946" y="152" width="180" height="2" rx="0" style="fill:#718096;stroke:none"></rect><rect id="sdk.rail2" x="946" y="212" width="180" height="2" rx="0" style="fill:#718096;stroke:none"></rect><rect id="sdk.module1" x="956" y="162" width="80" height="20" rx="8" style="fill:#553c9a;stroke:none"></rect><text id="sdk.module1.text" x="996" y="174" style="fill:#ffffff;font-size:9;text-anchor:middle">Conductor</text><rect id="sdk.module2" x="956" y="192" width="80" height="20" rx="8" style="fill:#553c9a;stroke:none"></rect><text id="sdk.module2.text" x="996" y="204" style="fill:#ffffff;font-size:9;text-anchor:middle">EventRouter</text>
  <g class="flow" id="flow.manifest_registration">
    <path d="M 512 176 L 604 176 L 604 176 L 696 176 M 512 176 L 724 176 L 724 176 L 936 176" fill="none" stroke="none" id="flow.manifest_registration-path"/>
    <circle r="4" fill="#d6bcfa" class="flow-token">
      <animateMotion dur="2.5s" repeatCount="infinite" rotate="auto">
        <mpath href="#flow.manifest_registration-path"/>
      </animateMotion>
    </circle>
  </g>
</svg>