<svg viewBox="0 0 800 400" xmlns="http://www.w3.org/2000/svg">
  <!-- Scene 1: The bus leaving the depot -->
  
  <!-- Background sky -->
  <rect x="0" y="0" width="800" height="250" fill="#87CEEB"/>
  
  <!-- Clouds -->
  <g fill="#FFFFFF" opacity="0.8">
    <!-- Cloud 1 -->
    <circle cx="150" cy="60" r="20"/>
    <circle cx="170" cy="60" r="15"/>
    <circle cx="130" cy="65" r="12"/>
    <circle cx="165" cy="50" r="10"/>
    
    <!-- Cloud 2 -->
    <circle cx="600" cy="80" r="25"/>
    <circle cx="625" cy="80" r="18"/>
    <circle cx="580" cy="85" r="15"/>
    <circle cx="620" cy="65" r="12"/>
    
    <!-- Cloud 3 -->
    <circle cx="400" cy="50" r="18"/>
    <circle cx="420" cy="50" r="12"/>
    <circle cx="385" cy="55" r="10"/>
  </g>
  
  <!-- Ground/grass verges -->
  <rect x="0" y="250" width="800" height="150" fill="#4A6B3A"/>
  
  <!-- Road -->
  <rect x="0" y="280" width="800" height="60" fill="#404040"/>
  
  <!-- Road edges -->
  <rect x="0" y="278" width="800" height="2" fill="#606060"/>
  <rect x="0" y="340" width="800" height="2" fill="#606060"/>
  
  <!-- Dashed center line -->
  <g fill="#FFFF00">
    <rect x="50" y="308" width="40" height="4"/>
    <rect x="120" y="308" width="40" height="4"/>
    <rect x="190" y="308" width="40" height="4"/>
    <rect x="260" y="308" width="40" height="4"/>
    <rect x="330" y="308" width="40" height="4"/>
    <rect x="400" y="308" width="40" height="4"/>
    <rect x="470" y="308" width="40" height="4"/>
    <rect x="540" y="308" width="40" height="4"/>
    <rect x="610" y="308" width="40" height="4"/>
    <rect x="680" y="308" width="40" height="4"/>
    <rect x="750" y="308" width="40" height="4"/>
  </g>
  
  <!-- Depot building -->
  <g id="depot">
    <!-- Main building structure -->
    <rect x="50" y="150" width="200" height="130" fill="#8B7355" stroke="#6B5535" stroke-width="2"/>
    
    <!-- Roof -->
    <polygon points="40,150 150,110 260,110 260,150" fill="#654321" stroke="#543210" stroke-width="2"/>
    
    <!-- Front overhang -->
    <polygon points="45,150 45,140 255,140 255,150" fill="#765432" stroke="#654321" stroke-width="1"/>
    
    <!-- Garage door -->
    <rect x="80" y="200" width="60" height="80" fill="#666" stroke="#444" stroke-width="2" rx="3"/>
    <rect x="160" y="200" width="60" height="80" fill="#666" stroke="#444" stroke-width="2" rx="3"/>
    
    <!-- Garage door panels -->
    <g stroke="#555" stroke-width="1" fill="none">
      <line x1="80" y1="215" x2="140" y2="215"/>
      <line x1="80" y1="230" x2="140" y2="230"/>
      <line x1="80" y1="245" x2="140" y2="245"/>
      <line x1="80" y1="260" x2="140" y2="260"/>
      
      <line x1="160" y1="215" x2="220" y2="215"/>
      <line x1="160" y1="230" x2="220" y2="230"/>
      <line x1="160" y1="245" x2="220" y2="245"/>
      <line x1="160" y1="260" x2="220" y2="260"/>
    </g>
    
    <!-- Depot sign -->
    <rect x="100" y="160" width="100" height="20" fill="#FFFFFF" stroke="#333" stroke-width="1" rx="3"/>
    <text x="150" y="173" text-anchor="middle" font-family="Arial, sans-serif" font-size="12" font-weight="bold" fill="#333">SCHOOL BUS DEPOT</text>
  </g>
  
  <!-- School bus -->
  <g id="school-bus" transform="translate(300, 250)">
    <!-- Bus body -->
    <rect x="0" y="0" width="120" height="40" rx="4" ry="4" fill="#FFD700" stroke="#E6C200" stroke-width="2"/>
    
    <!-- Bus front -->
    <rect x="115" y="3" width="12" height="34" rx="6" ry="6" fill="#FFD700" stroke="#E6C200" stroke-width="2"/>
    
    <!-- Bus roof -->
    <rect x="-2" y="-3" width="124" height="6" rx="3" ry="3" fill="#FFA500"/>
    
    <!-- Front bumper -->
    <rect x="125" y="35" width="8" height="4" rx="2" ry="2" fill="#C0C0C0"/>
    
    <!-- Windows (tinted dark) -->
    <rect x="110" y="6" width="8" height="12" rx="1" ry="1" fill="#2F4F4F" opacity="0.8"/>
    <rect x="100" y="6" width="8" height="12" rx="1" ry="1" fill="#2F4F4F" opacity="0.8"/>
    <rect x="90" y="6" width="8" height="12" rx="1" ry="1" fill="#2F4F4F" opacity="0.8"/>
    <rect x="80" y="6" width="8" height="12" rx="1" ry="1" fill="#2F4F4F" opacity="0.8"/>
    <rect x="70" y="6" width="8" height="12" rx="1" ry="1" fill="#2F4F4F" opacity="0.8"/>
    <rect x="60" y="6" width="8" height="12" rx="1" ry="1" fill="#2F4F4F" opacity="0.8"/>
    <rect x="50" y="6" width="8" height="12" rx="1" ry="1" fill="#2F4F4F" opacity="0.8"/>
    <rect x="40" y="6" width="8" height="12" rx="1" ry="1" fill="#2F4F4F" opacity="0.8"/>
    <rect x="30" y="6" width="8" height="12" rx="1" ry="1" fill="#2F4F4F" opacity="0.8"/>
    <rect x="20" y="6" width="8" height="12" rx="1" ry="1" fill="#2F4F4F" opacity="0.8"/>
    <rect x="10" y="6" width="8" height="12" rx="1" ry="1" fill="#2F4F4F" opacity="0.8"/>
    
    <!-- Emergency exit window -->
    <rect x="5" y="8" width="6" height="8" rx="1" ry="1" fill="#2F4F4F" opacity="0.8"/>
    
    <!-- Door -->
    <rect x="95" y="22" width="12" height="18" rx="1" ry="1" fill="#E6C200" stroke="#D4AF37" stroke-width="1"/>
    <rect x="97" y="24" width="8" height="8" rx="1" ry="1" fill="#2F4F4F" opacity="0.8"/>
    <circle cx="99" cy="35" r="1" fill="#000"/>
    
    <!-- School Bus text -->
    <text x="60" y="28" text-anchor="middle" font-family="Arial, sans-serif" font-size="8" font-weight="bold" fill="#000">SCHOOL BUS</text>
    
    <!-- Orange stripe -->
    <rect x="0" y="20" width="120" height="4" fill="#FFA500"/>
    
    <!-- Front headlight (glowing) -->
    <circle cx="123" cy="12" r="3" fill="#FFFF00">
      <animate attributeName="opacity" values="0.8;1;0.8" dur="2s" repeatCount="indefinite"/>
    </circle>
    
    <!-- Rear lights -->
    <rect x="2" y="8" width="3" height="4" rx="1.5" ry="1.5" fill="#FF0000"/>
    <rect x="2" y="28" width="3" height="4" rx="1.5" ry="1.5" fill="#FF0000"/>
    
    <!-- Wheels -->
    <circle cx="25" cy="42" r="8" fill="#333" stroke="#222" stroke-width="2"/>
    <circle cx="95" cy="42" r="8" fill="#333" stroke="#222" stroke-width="2"/>
    
    <!-- Wheel details -->
    <circle cx="25" cy="42" r="4" fill="#666"/>
    <circle cx="95" cy="42" r="4" fill="#666"/>
    <circle cx="25" cy="42" r="2" fill="#999"/>
    <circle cx="95" cy="42" r="2" fill="#999"/>
  </g>
  
  <!-- Caption -->
  <g id="caption" transform="translate(400, 370)">
    <rect x="-150" y="-10" width="300" height="25" fill="#FFFFFF" fill-opacity="0.9" stroke="#333" stroke-width="1" rx="5"/>
    <text x="0" y="8" text-anchor="middle" font-family="Arial, sans-serif" font-size="14" font-weight="bold" fill="#333">Bus leaves depot → publish(topic, payload)</text>
  </g>
</svg>
