<svg viewBox="0 0 800 80" xmlns="http://www.w3.org/2000/svg">
  <!-- Road with dashed center line for Scene 1 -->
  
  <g id="road-with-dashes">
    <!-- Main road surface -->
    <rect x="0" y="20" width="800" height="60" fill="#404040"/>
    
    <!-- Road edges (slightly lighter) -->
    <rect x="0" y="18" width="800" height="2" fill="#606060"/>
    <rect x="0" y="80" width="800" height="2" fill="#606060"/>
    
    <!-- Road texture lines -->
    <g stroke="#505050" stroke-width="0.5" opacity="0.3">
      <line x1="0" y1="25" x2="800" y2="25"/>
      <line x1="0" y1="35" x2="800" y2="35"/>
      <line x1="0" y1="45" x2="800" y2="45"/>
      <line x1="0" y1="55" x2="800" y2="55"/>
      <line x1="0" y1="65" x2="800" y2="65"/>
      <line x1="0" y1="75" x2="800" y2="75"/>
    </g>
    
    <!-- Dashed center line (yellow) -->
    <g fill="#FFFF00">
      <rect x="20" y="48" width="40" height="4" rx="2"/>
      <rect x="90" y="48" width="40" height="4" rx="2"/>
      <rect x="160" y="48" width="40" height="4" rx="2"/>
      <rect x="230" y="48" width="40" height="4" rx="2"/>
      <rect x="300" y="48" width="40" height="4" rx="2"/>
      <rect x="370" y="48" width="40" height="4" rx="2"/>
      <rect x="440" y="48" width="40" height="4" rx="2"/>
      <rect x="510" y="48" width="40" height="4" rx="2"/>
      <rect x="580" y="48" width="40" height="4" rx="2"/>
      <rect x="650" y="48" width="40" height="4" rx="2"/>
      <rect x="720" y="48" width="40" height="4" rx="2"/>
    </g>
    
    <!-- Road shoulder lines (white) -->
    <rect x="0" y="22" width="800" height="1" fill="#FFFFFF" opacity="0.8"/>
    <rect x="0" y="77" width="800" height="1" fill="#FFFFFF" opacity="0.8"/>
    
    <!-- Optional: subtle road wear marks -->
    <g stroke="#333" stroke-width="0.3" opacity="0.2" fill="none">
      <path d="M 100,25 Q 150,40 200,35 T 300,45"/>
      <path d="M 400,30 Q 450,50 500,40 T 600,55"/>
      <path d="M 650,35 Q 700,25 750,40"/>
    </g>
  </g>
</svg>
