<svg xmlns="http://www.w3.org/2000/svg" width="420" height="140" viewBox="0 0 420 140">
  <!-- Conveyor belt -->
  <rect x="40" y="88" width="340" height="22" rx="11" fill="#FEF3C7" stroke="#D97706"/>
  <circle cx="70" cy="99" r="3" fill="#D97706"/><circle cx="110" cy="99" r="3" fill="#D97706"/>
  <circle cx="150" cy="99" r="3" fill="#D97706"/><circle cx="190" cy="99" r="3" fill="#D97706"/>
  <circle cx="230" cy="99" r="3" fill="#D97706"/><circle cx="270" cy="99" r="3" fill="#D97706"/>
  <circle cx="310" cy="99" r="3" fill="#D97706"/><circle cx="350" cy="99" r="3" fill="#D97706"/>
  <!-- Modules on belt -->
  <rect x="80" y="62" width="36" height="22" rx="4" fill="#FDE68A" stroke="#CA8A04"/>
  <rect x="150" y="58" width="36" height="26" rx="4" fill="#FDE68A" stroke="#CA8A04"/>
  <rect x="220" y="62" width="36" height="22" rx="4" fill="#FDE68A" stroke="#CA8A04"/>
  <!-- Version tags -->
  <text x="168" y="54" font-family="Arial, Helvetica, sans-serif" font-size="11" fill="#92400E">1.0.0</text>
  <text x="238" y="54" font-family="Arial, Helvetica, sans-serif" font-size="11" fill="#92400E">1.1.0</text>
  <!-- Publish uplink -->
  <path d="M330,86 L330,42" stroke="#D97706" stroke-width="2"/>
  <polygon points="330,32 324,44 336,44" fill="#D97706"/>
</svg>

