<svg xmlns="http://www.w3.org/2000/svg" width="420" height="140" viewBox="0 0 420 140">
  <!-- Two elegant connectors emerging from the plugin's core -->
  <defs>
    <linearGradient id="connectors-connectorGradient" x1="0%" y1="0%" x2="100%" y2="0%">
      <stop offset="0%" style="stop-color:#8B5CF6;stop-opacity:1"/>
      <stop offset="100%" style="stop-color:#A78BFA;stop-opacity:1"/>
    </linearGradient>
  </defs>

  <!-- Plugin core (central hub) -->
  <circle cx="200" cy="150" r="20" fill="url(#connectors-connectorGradient)" stroke="#7C3AED" stroke-width="2"/>
  <circle cx="200" cy="150" r="12" fill="#FFFFFF" opacity="0.3"/>

  <!-- Left connector -->
  <g>
    <path d="M180 150 Q120 150 80 120" fill="none" stroke="url(#connectors-connectorGradient)" stroke-width="4" stroke-linecap="round"/>
    <circle cx="80" cy="120" r="6" fill="url(#connectors-connectorGradient)"/>
    <circle cx="80" cy="120" r="3" fill="#FFFFFF" opacity="0.8"/>
  </g>

  <!-- Right connector -->
  <g>
    <path d="M220 150 Q280 150 320 180" fill="none" stroke="url(#connectors-connectorGradient)" stroke-width="4" stroke-linecap="round"/>
    <circle cx="320" cy="180" r="6" fill="url(#connectors-connectorGradient)"/>
    <circle cx="320" cy="180" r="3" fill="#FFFFFF" opacity="0.8"/>
  </g>
  <!-- Matching ports labeled onDragStart and publishCreateRequested -->

  <!-- onDragStart port -->
  <g transform="translate(60, 100)">
    <rect x="0" y="0" width="120" height="30" fill="#F3F0FF" stroke="#8B5CF6"
          stroke-width="1.5" rx="6"/>
    <text x="60" y="20" text-anchor="middle" font-size="11" fill="#7C3AED"
          font-weight="500">onDragStart</text>
    <!-- Port indicator -->
    <circle cx="10" cy="15" r="3" fill="#8B5CF6"/>
  </g>

  <!-- publishCreateRequested port -->
  <g transform="translate(220, 160)">
    <rect x="0" y="0" width="160" height="30" fill="#F3F0FF" stroke="#8B5CF6"
          stroke-width="1.5" rx="6"/>
    <text x="80" y="20" text-anchor="middle" font-size="11" fill="#7C3AED"
          font-weight="500">publishCreateRequested</text>
    <!-- Port indicator -->
    <circle cx="10" cy="15" r="3" fill="#8B5CF6"/>
  </g>
  <rect x="10" y="10" width="220" height="40" fill="url(#violetGrad)" rx="6"/>
  <path d="M20 80 h40 v-30 h40 v30 h40 v-20 h40"/>
  <circle cx="20" cy="80" r="3" fill="#6B4EFF"/>
  <circle cx="180" cy="60" r="3" fill="#6B4EFF"/>
  <circle cx="220" cy="60" r="3" fill="#6B4EFF"/>
</svg>

