<svg xmlns="http://www.w3.org/2000/svg" xmlns:xlink="http://www.w3.org/1999/xlink" width="420" height="140" viewBox="0 0 420 140">
  <!-- Console chassis -->
  <rect x="30" y="28" width="360" height="84" rx="10" fill="#E5E7EB" stroke="#6B7280"/>
  <!-- Rails -->
  <rect x="42" y="42" width="336" height="6" rx="3" fill="#D1D5DB"/>
  <rect x="42" y="88" width="336" height="6" rx="3" fill="#D1D5DB"/>
  <!-- Modules -->
  <rect x="60" y="54" width="110" height="24" rx="5" fill="#FFFFFF" stroke="#9CA3AF"/>
  <text x="115" y="70" text-anchor="middle" font-family="Arial, Helvetica, sans-serif" font-size="12" fill="#111827">Conductor</text>
  <rect x="190" y="54" width="110" height="24" rx="5" fill="#FFFFFF" stroke="#9CA3AF"/>
  <text x="245" y="70" text-anchor="middle" font-family="Arial, Helvetica, sans-serif" font-size="12" fill="#111827">EventRouter</text>
  <rect x="320" y="54" width="44" height="24" rx="5" fill="#FFFFFF" stroke="#9CA3AF"/>
  <text x="342" y="70" text-anchor="middle" font-family="Arial, Helvetica, sans-serif" font-size="11" fill="#374151">I/O</text>
  <!-- Title -->
  <text x="210" y="22" text-anchor="middle" font-family="Arial, Helvetica, sans-serif" font-size="14" fill="#111827">Host SDK (Context)</text>
  <!-- Composed from sub-elements -->
  <g id="sub-elements">
  <g data-sub-id="console" data-src="host-sdk/console.svg" transform="translate(0,0)">
  <g fill="#B0B7BD" stroke="#6E757C">

    <rect x="10" y="20" width="180" height="80" rx="8"/>
  
  </g>
  </g>
  <g data-sub-id="rails" data-src="host-sdk/rails.svg" transform="translate(0,0)">
  <g stroke="#6E757C" stroke-width="4">

    <line x1="20" y1="40" x2="200" y2="40"/>
    <line x1="20" y1="80" x2="200" y2="80"/>
  
  </g>
  </g>
  <g data-sub-id="ports" data-src="host-sdk/ports.svg" transform="translate(0,0)">
  <g fill="#6E757C">

    <circle cx="30" cy="40" r="6"/>
    <circle cx="30" cy="80" r="6"/>
    <circle cx="190" cy="40" r="6"/>
    <circle cx="190" cy="80" r="6"/>
  
  </g>
  </g>
  <g data-sub-id="modules" data-src="host-sdk/modules.svg" transform="translate(0,0)">
  <g fill="#C7CED4" stroke="#6E757C">

    <rect x="30" y="30" width="70" height="60" rx="6"/>
    <rect x="120" y="30" width="70" height="60" rx="6"/>
    <text x="65" y="65" text-anchor="middle" font-size="10" fill="#333">Conductor</text>
    <text x="155" y="65" text-anchor="middle" font-size="10" fill="#333">EventRouter</text>
  
  </g>
  </g>
</g>
  </g>
  <g data-sub-id="rails" data-src="host-sdk/rails.svg" transform="translate(0,0)">
  <g stroke="#6E757C" stroke-width="4">

    <line x1="20" y1="40" x2="200" y2="40"/>
    <line x1="20" y1="80" x2="200" y2="80"/>
  
  </g>
  </g>
  <g data-sub-id="ports" data-src="host-sdk/ports.svg" transform="translate(0,0)">
  <g fill="#6E757C">

    <circle cx="30" cy="40" r="6"/>
    <circle cx="30" cy="80" r="6"/>
    <circle cx="190" cy="40" r="6"/>
    <circle cx="190" cy="80" r="6"/>
  
  </g>
  </g>
  <g data-sub-id="modules" data-src="host-sdk/modules.svg" transform="translate(0,0)">
  <g fill="#C7CED4" stroke="#6E757C">

    <rect x="30" y="30" width="70" height="60" rx="6"/>
    <rect x="120" y="30" width="70" height="60" rx="6"/>
    <text x="65" y="65" text-anchor="middle" font-size="10" fill="#333">Conductor</text>
    <text x="155" y="65" text-anchor="middle" font-size="10" fill="#333">EventRouter</text>
  
  </g>
  </g>
</g>
</svg>
