<svg xmlns="http://www.w3.org/2000/svg" xmlns:xlink="http://www.w3.org/1999/xlink" width="420" height="140" viewBox="0 0 420 140">
  <text x="210" y="116" text-anchor="middle" font-family="Arial, Helvetica, sans-serif" font-size="13" fill="#0E7490">Plugin Manifest</text>
  <!-- Composed from sub-elements -->
  <g id="sub-elements">
  <g data-sub-id="document-card" data-src="plugin-manifest/document-card.svg" transform="translate(21.11,18) scale(1.89,0.40)">
  <g fill="#FFFFFF" stroke="#4AD1FF">

    <rect x="10" y="10" width="180" height="240" rx="8"/>
  
  </g>
  </g>
  <g data-sub-id="json-braces" data-src="plugin-manifest/json-braces.svg" transform="translate(-35,1) scale(2.50,0.60)">
  <g font-family="Courier New, monospace" font-size="72" fill="#4AD1FF">

    <text x="40" y="85">{</text>
    <text x="140" y="85">}</text>
  
  </g>
  </g>
  <g data-sub-id="key-value-rows" data-src="plugin-manifest/key-value-rows.svg" transform="translate(66,0) scale(1.20,1.40)">
  <g stroke="#777" fill="none">

    <line x1="20" y1="30" x2="220" y2="30"/>
    <line x1="20" y1="60" x2="220" y2="60"/>
    <line x1="20" y1="90" x2="220" y2="90"/>
    <line x1="20" y1="120" x2="220" y2="120"/>
  
  </g>
  </g>
  <g data-sub-id="generated-stamp" data-src="plugin-manifest/generated-stamp.svg" transform="translate(320,6) scale(0.25,0.25)">

    <circle cx="80" cy="80" r="60" fill="#F3F9FF" stroke="#4AD1FF"/>
    <text x="80" y="87" text-anchor="middle" font-family="Arial" font-size="14" fill="#4AD1FF">generated</text>
  
  </g>
  <g data-sub-id="tabs" data-src="plugin-manifest/tabs.svg" transform="translate(48.33,18) scale(1.17,0.40)">
  <g fill="#E8F7FF" stroke="#4AD1FF">

    <rect x="10" y="20" width="60" height="40" rx="6"/>
    <rect x="80" y="20" width="60" height="40" rx="6"/>
    <rect x="150" y="20" width="60" height="40" rx="6"/>
  
  </g>
  </g>
</g>
  </g>
  <g data-sub-id="json-braces" data-src="plugin-manifest/json-braces.svg" transform="translate(-35,1) scale(2.50,0.60)">
  <g font-family="Courier New, monospace" font-size="72" fill="#4AD1FF">

    <text x="40" y="85">{</text>
    <text x="140" y="85">}</text>
  
  </g>
  </g>
  <g data-sub-id="key-value-rows" data-src="plugin-manifest/key-value-rows.svg" transform="translate(66,0) scale(1.20,1.40)">
  <g stroke="#777" fill="none">

    <line x1="20" y1="30" x2="220" y2="30"/>
    <line x1="20" y1="60" x2="220" y2="60"/>
    <line x1="20" y1="90" x2="220" y2="90"/>
    <line x1="20" y1="120" x2="220" y2="120"/>
  
  </g>
  </g>
  <g data-sub-id="generated-stamp" data-src="plugin-manifest/generated-stamp.svg" transform="translate(320,6) scale(0.25,0.25)">

    <circle cx="80" cy="80" r="60" fill="#F3F9FF" stroke="#4AD1FF"/>
    <text x="80" y="87" text-anchor="middle" font-family="Arial" font-size="14" fill="#4AD1FF">generated</text>
  
  </g>
  <g data-sub-id="tabs" data-src="plugin-manifest/tabs.svg" transform="translate(48.33,18) scale(1.17,0.40)">
  <g fill="#E8F7FF" stroke="#4AD1FF">

    <rect x="10" y="20" width="60" height="40" rx="6"/>
    <rect x="80" y="20" width="60" height="40" rx="6"/>
    <rect x="150" y="20" width="60" height="40" rx="6"/>
  
  </g>
  </g>
</g>
  <g data-sub-id="json-braces" data-src="plugin-manifest/json-braces.svg" transform="translate(-35,1) scale(2.50,0.60)">

    <text x="40" y="85">{</text>
    <text x="140" y="85">}</text>
  
  </g>
  <g data-sub-id="key-value-rows" data-src="plugin-manifest/key-value-rows.svg" transform="translate(66,0) scale(1.20,1.40)">

    <line x1="20" y1="30" x2="220" y2="30"/>
    <line x1="20" y1="60" x2="220" y2="60"/>
    <line x1="20" y1="90" x2="220" y2="90"/>
    <line x1="20" y1="120" x2="220" y2="120"/>
  
  </g>
  <g data-sub-id="generated-stamp" data-src="plugin-manifest/generated-stamp.svg" transform="translate(320,6) scale(0.25,0.25)">

    <circle cx="80" cy="80" r="60" fill="#F3F9FF" stroke="#4AD1FF"/>
    <text x="80" y="87" text-anchor="middle" font-family="Arial" font-size="14" fill="#4AD1FF">generated</text>
  
  </g>
  <g data-sub-id="tabs" data-src="plugin-manifest/tabs.svg" transform="translate(48.33,18) scale(1.17,0.40)">

    <rect x="10" y="20" width="60" height="40" rx="6"/>
    <rect x="80" y="20" width="60" height="40" rx="6"/>
    <rect x="150" y="20" width="60" height="40" rx="6"/>
  
  </g>
</g>
</svg>
