<svg xmlns="http://www.w3.org/2000/svg" width="420" height="140" viewBox="0 0 420 140">
  <!-- Sleek document card with cyan trim -->
  <defs>
    <linearGradient id="document-card-cardGradient" x1="0%" y1="0%" x2="0%" y2="100%">
      <stop offset="0%" style="stop-color:#FAFAFA;stop-opacity:1"/>
      <stop offset="100%" style="stop-color:#F0F0F0;stop-opacity:1"/>
    </linearGradient>
    <filter id="document-card-cardShadow">
      <feDropShadow dx="2" dy="4" stdDeviation="3" flood-color="#000" flood-opacity="0.1"/>
    </filter>
  </defs>

  <!-- Main card body -->
  <rect x="20" y="20" width="360" height="260" fill="url(#document-card-cardGradient)"
        stroke="#E0E0E0" stroke-width="1" rx="8" filter="url(#document-card-cardShadow)"/>

  <!-- Cyan trim -->
  <rect x="20" y="20" width="360" height="4" fill="#0891B2" rx="8"/>
  <rect x="20" y="20" width="4" height="260" fill="#0891B2" rx="8"/>

  <!-- Subtle inner border -->
  <rect x="25" y="30" width="350" height="245" fill="none"
        stroke="#F0F0F0" stroke-width="1" rx="4"/>
  <!-- Stylized JSON braces that frame the content -->
  <defs>
    <linearGradient id="json-braces-braceGradient" x1="0%" y1="0%" x2="100%" y2="0%">
      <stop offset="0%" style="stop-color:#0891B2;stop-opacity:1"/>
      <stop offset="100%" style="stop-color:#06B6D4;stop-opacity:1"/>
    </linearGradient>
  </defs>

  <!-- Opening brace -->
  <g fill="url(#json-braces-braceGradient)" font-family="'Fira Code', 'Monaco', monospace" font-size="32" font-weight="300">
    <text x="40" y="60">{</text>
  </g>

  <!-- Closing brace -->
  <g fill="url(#json-braces-braceGradient)" font-family="'Fira Code', 'Monaco', monospace" font-size="32" font-weight="300">
    <text x="40" y="260">}</text>
  </g>

  <!-- Subtle connecting lines -->
  <path d="M45 70 L45 250" stroke="#0891B2" stroke-width="1" opacity="0.3"/>
  <!-- Neatly aligned key-value rows representing structured data -->

  <!-- Row 1: name -->
  <g transform="translate(80, 80)">
    <text x="0" y="0" font-size="14" fill="#666" font-weight="500">"name":</text>
    <text x="80" y="0" font-size="14" fill="#0891B2">"my-plugin"</text>
    <text x="180" y="0" font-size="14" fill="#666">,</text>
  </g>

  <!-- Row 2: version -->
  <g transform="translate(80, 110)">
    <text x="0" y="0" font-size="14" fill="#666" font-weight="500">"version":</text>
    <text x="80" y="0" font-size="14" fill="#0891B2">"1.0.0"</text>
    <text x="140" y="0" font-size="14" fill="#666">,</text>
  </g>

  <!-- Row 3: handlersPath -->
  <g transform="translate(80, 140)">
    <text x="0" y="0" font-size="14" fill="#666" font-weight="500">"handlersPath":</text>
    <text x="140" y="0" font-size="14" fill="#0891B2">"./handlers"</text>
    <text x="240" y="0" font-size="14" fill="#666">,</text>
  </g>

  <!-- Row 4: routes -->
  <g transform="translate(80, 170)">
    <text x="0" y="0" font-size="14" fill="#666" font-weight="500">"routes":</text>
    <text x="80" y="0" font-size="14" fill="#E97E00">[</text>
    <text x="90" y="0" font-size="14" fill="#666">...</text>
    <text x="110" y="0" font-size="14" fill="#E97E00">]</text>
    <text x="120" y="0" font-size="14" fill="#666">,</text>
  </g>

  <!-- Row 5: topics -->
  <g transform="translate(80, 200)">
    <text x="0" y="0" font-size="14" fill="#666" font-weight="500">"topics":</text>
    <text x="80" y="0" font-size="14" fill="#E97E00">[</text>
    <text x="90" y="0" font-size="14" fill="#666">...</text>
    <text x="110" y="0" font-size="14" fill="#E97E00">]</text>
  </g>

  <!-- Alignment guides (subtle) -->
  <line x1="160" y1="75" x2="160" y2="205" stroke="#F0F0F0" stroke-width="1" opacity="0.3"/>
  <!-- Subtle 'generated' stamp in the corner -->
  <g transform="translate(320, 40)">
    <!-- Stamp background -->
    <rect x="0" y="0" width="60" height="20" fill="#F0F9FF" stroke="#0891B2"
          stroke-width="1" rx="3" opacity="0.8"/>
    <!-- Stamp text -->
    <text x="30" y="13" text-anchor="middle" font-size="9" fill="#0891B2"
          font-weight="500" opacity="0.7">GENERATED</text>
    <!-- Corner fold effect -->
    <path d="M55 0 L60 0 L60 5 Z" fill="#E0F2FE" stroke="#0891B2" stroke-width="0.5"/>
  </g>
  <!-- Tabs along the edge suggesting navigable sections -->

  <!-- Routes tab -->
  <g transform="translate(30, 30)">
    <rect x="0" y="0" width="60" height="25" fill="#F8FAFC" stroke="#E2E8F0"
          stroke-width="1" rx="4"/>
    <text x="30" y="16" text-anchor="middle" font-size="10" fill="#64748B"
          font-weight="500">routes</text>
  </g>

  <!-- Topics tab -->
  <g transform="translate(100, 30)">
    <rect x="0" y="0" width="60" height="25" fill="#F0F9FF" stroke="#0891B2"
          stroke-width="1" rx="4"/>
    <text x="30" y="16" text-anchor="middle" font-size="10" fill="#0891B2"
          font-weight="500">topics</text>
  </g>

  <!-- Handlers tab -->
  <g transform="translate(170, 30)">
    <rect x="0" y="0" width="70" height="25" fill="#F8FAFC" stroke="#E2E8F0"
          stroke-width="1" rx="4"/>
    <text x="35" y="16" text-anchor="middle" font-size="10" fill="#64748B"
          font-weight="500">handlers</text>
  </g>

  <!-- Tab connector line -->
  <line x1="30" y1="55" x2="240" y2="55" stroke="#E2E8F0" stroke-width="1"/>
</svg>

